<svg version="1.2" xmlns="http://www.w3.org/2000/svg" viewBox="0 0 2348 2904" width="2348" height="2904"><defs><linearGradient id="P" gradientUnits="userSpaceOnUse"/><radialGradient id="g1" cx="1172.3" cy="1451.6" r="1404.8" href="#P"><stop stop-color="#57585a"/><stop offset="1" stop-color="#231f20"/></radialGradient><linearGradient id="g2" x1="0" y1="1.5" x2="2344.6" y2="1.5" href="#P"><stop stop-color="#57585a"/><stop offset="1" stop-color="#231f20"/></linearGradient><radialGradient id="g3" cx="1185" cy="1227.6" r="1051.7" href="#P"><stop stop-color="#fff"/><stop offset="1" stop-color="#6c6e70"/></radialGradient><linearGradient id="g4" x1="192.3" y1="234.9" x2="2177.7" y2="234.9" href="#P"><stop stop-color="#57585a"/><stop offset="1" stop-color="#231f20"/></linearGradient><linearGradient id="g5" x1="112.4" y1="2287.5" x2="112.4" y2="167.7" href="#P"><stop offset=".54" stop-color="#fefefe"/><stop offset="1" stop-color="#fefefe"/></linearGradient><radialGradient id="g6" cx="1736" cy="951.9" r="208.7" href="#P"><stop stop-color="#57585a"/><stop offset="1" stop-color="#231f20"/></radialGradient><radialGradient id="g7" cx="641.6" cy="953.3" r="209.4" href="#P"><stop stop-color="#57585a"/><stop offset="1" stop-color="#231f20"/></radialGradient><radialGradient id="g8" cx="1265.8" cy="1011.8" r="173.7" href="#P"><stop stop-color="#57585a"/><stop offset="1" stop-color="#231f20"/></radialGradient><radialGradient id="g9" cx="1100.5" cy="1022.4" r="166" href="#P"><stop stop-color="#57585a"/><stop offset="1" stop-color="#231f20"/></radialGradient><radialGradient id="g10" cx="938.9" cy="961.3" r="126.6" href="#P"><stop stop-color="#57585a"/><stop offset="1" stop-color="#231f20"/></radialGradient><radialGradient id="g11" cx="1435.9" cy="955.5" r="135.4" href="#P"><stop stop-color="#57585a"/><stop offset="1" stop-color="#231f20"/></radialGradient><radialGradient id="g12" cx="1484.1" cy="1299" r="179.9" href="#P"><stop stop-color="#57585a"/><stop offset="1" stop-color="#231f20"/></radialGradient><radialGradient id="g13" cx="1177.7" cy="1737.7" r="207.7" href="#P"><stop stop-color="#57585a"/><stop offset="1" stop-color="#231f20"/></radialGradient><radialGradient id="g14" cx="1144.8" cy="1377.5" r="263.5" href="#P"><stop stop-color="#57585a"/><stop offset="1" stop-color="#231f20"/></radialGradient></defs><style>.a{fill:url(#g1)}.b{fill:url(#g2)}.c{fill:url(#g3)}.d{fill:url(#g4)}.e{fill:url(#g5)}.f{opacity:.5;fill:#231f20}.g{fill:url(#g6)}.h{fill:url(#g7)}.i{fill:url(#g8)}.j{fill:url(#g9)}.k{fill:url(#g10)}.l{fill:url(#g11)}.m{fill:url(#g12)}.n{fill:url(#g13)}.o{fill:url(#g14)}</style><path class="a" d="m2326.7 1217.5c0-647.2-512.9-1174.5-1154.4-1197.9-641.5 23.4-1154.4 550.7-1154.4 1197.9 0 271.1 63.4 433 241.8 722 0 0-0.3 0-0.3 0 0 0 762.9 912.9 912.9 944.2 150.1-31.3 912.9-944.2 912.9-944.2 0 0-0.3 0-0.2 0 178.3-289 241.7-450.9 241.7-722z"/><path fill-rule="evenodd" class="b" d="m1172.3 2901.8l-3.6-0.8c-151.8-31.6-844.5-856.3-923.1-950.2l-22.6-37.1c-154-253.8-223-421.8-223-696.4 0-317.1 121.4-617.3 341.7-845.3 219.8-227.4 514.5-359 830-370.5h0.6 0.7c315.4 11.5 610.2 143.1 830 370.5 220.3 228 341.6 528.2 341.6 845.3 0 274.6-69 442.6-223 696.4l-22.6 37.1c-78.5 93.9-771.3 918.6-923 950.2zm-897.3-971.8c210.4 251.7 771.9 898.4 897.3 935 125.4-36.6 686.9-683.3 897.3-935l0.1-0.1c187.7-304.1 239.1-457.3 239.1-712.5 0-638.2-499.2-1156.4-1136.5-1180-637.3 23.6-1136.5 541.8-1136.5 1180 0 255.2 51.4 408.4 239.1 712.5z"/><path class="c" d="m1185 2201.3c-538.4 0-973.7-435.3-973.7-973.7 0-538.5 435.3-973.8 973.7-973.8 538.5 0 973.8 435.3 973.8 973.8 0 538.4-435.3 973.7-973.8 973.7z"/><path fill-rule="evenodd" class="d" d="m1185 2220.3c-548.9 0-992.7-443.8-992.7-992.7 0-549 443.8-992.7 992.7-992.7 549 0 992.7 443.7 992.7 992.7 0 548.9-443.7 992.7-992.7 992.7zm954.8-992.7c0-528-426.8-954.8-954.8-954.8-528 0-954.7 426.8-954.7 954.8 0 527.9 426.7 954.7 954.7 954.7 528 0 954.8-426.8 954.8-954.7z"/><path class="e" d="m1172.3 2287.5c-586.1 0-1059.9-473.8-1059.9-1059.9 0-586.2 473.8-1059.9 1059.9-1059.9 586.2 0 1059.9 473.7 1059.9 1059.9 0 586.1-473.7 1059.9-1059.9 1059.9z"/><path class="f" d="m143.2 1235c0-579.4 469.8-1049.1 1049.2-1049.1 153.9 0 300 33.1 431.6 92.6-143.9-74.3-307.2-116.3-480.4-116.3-579.4 0-1049.1 469.8-1049.1 1049.2 0 425.5 253.3 791.9 617.5 956.5-337.8-174.3-568.8-526.6-568.8-932.9z"/><path class="f" d="m2201.4 1216.5c0 579.4-469.7 1049.2-1049.1 1049.2-153.9 0-300-33.2-431.7-92.7 143.9 74.3 307.3 116.3 480.4 116.3 579.5 0 1049.2-469.7 1049.2-1049.2 0-425.5-253.4-791.9-617.5-956.5 337.7 174.3 568.7 526.6 568.7 932.9z"/><path class="g" d="m1537.7 1025.7c0 0 46.1 144.3 205.2 144.8 78.1 0.3 129.8-37.2 159.5-68.5h0.5c4.5-4.9 5-5.5 5.1-5.6 17.4-19.4 25.5-34.9 25.5-34.9h-0.6q0.6-1.2 0.6-1.3l-240.8-0.8 0.7-214.2 240.8 0.7c0 0-0.2-0.4-0.6-1.2h0.6c0 0-1.8-3.1-5.3-8.4-3.9-6.4-9.9-15.4-18.5-25.6h-1.6q0 0 0 0h1.5q-2.3-2.8-4.9-5.6h-1.8c-30.2-32-83.1-71.6-159.3-71.9-127.7-0.4-200.3 110.4-206.1 143.5z"/><path class="h" d="m841.2 882.9c0 0-43.7-145.1-202.7-148.2-78.1-1.5-130.5 35.2-160.6 66h-0.6c-4.5 4.9-5.1 5.5-5.1 5.5-17.7 19.2-26.1 34.5-26.1 34.5h0.6c-0.4 0.8-0.6 1.2-0.6 1.2l240.8 4.7-4.2 214.2-240.8-4.6c0 0 0.2 0.5 0.6 1.2h-0.6c0 0 1.7 3.2 5.2 8.5 3.8 6.5 9.7 15.6 18 25.9h1.6-1.5c1.5 1.9 3.2 3.8 4.8 5.7l1.8 0.1c29.7 32.4 82 72.9 158.2 74.4 127.7 2.5 202-107.1 208.4-140.2z"/><path class="i" d="m1197.8 1180.2c-0.2 37.2 29.8 67.4 66.9 67.6 37.2 0.2 67.5-29.8 67.7-67l1.5-337.4c0.2-37.2-29.8-67.5-67-67.7-37.2-0.1-67.4 29.9-67.6 67z"/><path class="j" d="m1168.6 865.4c0.1-37.2-29.9-67.5-67.1-67.7-37.1-0.1-67.4 29.9-67.5 67.1l-1.5 320.8c-0.2 37.2 29.8 61.3 67 61.5 37.2 0.1 67.4-23.7 67.6-60.9z"/><path class="k" d="m1005.8 1059.9l0.9-196.7c0.1-37.2-29.8-67.5-67-67.6-37.2-0.2-67.5 29.8-67.6 67l-1 196.7c-0.1 37.2 29.9 67.4 67 67.6 37.2 0.2 67.5-29.8 67.7-67z"/><path class="l" d="m1436.9 776.5c-37.2-0.2-67.5 29.9-67.6 67l-1.4 291c5.4-19.8 16.7-38.1 33.4-51.8 3.8-3.1 7.9-6 12.2-8.6 28.1-16.8 61-18.4 89.3-7.4l1.1-222.6c0.1-37.1-29.9-67.4-67-67.6z"/><path class="m" d="m1430.4 1104.4c-31.9 19.1-42.2 60.4-23.1 92.3l68.9 114.9-111 66.6c-31.9 19.1-42.3 60.4-23.2 92.3 19.1 31.9 60.5 42.2 92.4 23.2l168.7-101.2c31.9-19.1 42.2-60.4 23.1-92.3-0.3-0.6-0.8-1.2-1.2-1.8-0.4-0.7-0.7-1.5-1.1-2.2l-101.1-168.7c-19.2-31.9-60.5-42.2-92.4-23.1z"/><path class="n" d="m1453.2 1638.2l-550-2.6-1 201.6 550.1 2.5z"/><path class="o" d="m1315.2 1486c-25.7-43-16-99.3 22.7-131 3.8-3.2 8-6 12.3-8.7l81.4-48.8-38.6-64.4c-11.9-5.5-22.6-13.1-31.5-22.5-13.6 40.5-51.9 69.7-96.9 69.5-33.1-0.2-62.4-16.3-80.9-40.9-18.1 24.7-48.5 40.3-84.3 40.1-58.1-0.2-101.7-41.5-101.4-96l0.2-43.7c-16.9 12.4-37.7 19.7-60.2 19.6-21-0.1-40.5-6.6-56.7-17.6-13.8 13.3-22.3 30.9-22.4 50.3l-0.8 190.9c-0.2 37.2 30.4 68.2 70.8 74.9l-0.4 87.6c-0.1 37.6 29.2 68.2 65.5 68.4l361.6 1.7c36.3 0.2 65.9-30.2 66.1-67.8v-14.1c-40.7 7.8-83.9-9.9-106.5-47.5z"/></svg>